<?xml version="1.0" encoding="UTF-8" standalone="no"?>
<!-- Created with Inkscape (http://www.inkscape.org/) -->

<svg
   width="67.99791mm"
   height="9.7895842mm"
   viewBox="0 0 67.99791 9.7895842"
   version="1.1"
   id="svg5"
   inkscape:version="1.1 (c68e22c387, 2021-05-23)"
   sodipodi:docname="logo.svg"
   xmlns:inkscape="http://www.inkscape.org/namespaces/inkscape"
   xmlns:sodipodi="http://sodipodi.sourceforge.net/DTD/sodipodi-0.dtd"
   xmlns="http://www.w3.org/2000/svg"
   xmlns:svg="http://www.w3.org/2000/svg">
  <sodipodi:namedview
     id="namedview7"
     pagecolor="#505050"
     bordercolor="#eeeeee"
     borderopacity="1"
     inkscape:pageshadow="0"
     inkscape:pageopacity="0"
     inkscape:pagecheckerboard="0"
     inkscape:document-units="mm"
     showgrid="true"
     inkscape:zoom="2"
     inkscape:cx="90.750001"
     inkscape:cy="61.750001"
     inkscape:window-width="1302"
     inkscape:window-height="745"
     inkscape:window-x="-8"
     inkscape:window-y="-8"
     inkscape:window-maximized="1"
     inkscape:current-layer="layer1"
     inkscape:lockguides="true"
     lock-margins="false"
     fit-margin-top="0"
     fit-margin-left="0"
     fit-margin-right="0"
     fit-margin-bottom="0">
    <inkscape:grid
       type="xygrid"
       id="grid128935"
       originx="-76.993751"
       originy="-71.702081" />
  </sodipodi:namedview>
  <defs
     id="defs2" />
  <g
     inkscape:label="Layer 1"
     inkscape:groupmode="layer"
     id="layer1"
     transform="translate(-76.993749,-71.702082)">
    <path
       style="fill:#000000;stroke-width:0.264583"
       id="path85175"
       d="" />
    <path
       style="fill:#000000;stroke-width:0.264583"
       id="path42938"
       d="" />
    <path
       style="fill:#000000;stroke-width:0.264583"
       id="path59"
       d="" />
    <path
       style="fill:#e6e6e6;stroke:none;stroke-width:0.264583px;stroke-linecap:butt;stroke-linejoin:miter;stroke-opacity:1"
       d="m 80.168749,71.966666 v 0.264583 h -0.79375 v 0.264583 h -0.529167 v 0.264584 h -0.264583 v 0.264583 h -0.264583 v 0.264583 h -0.264584 v 0.264584 h -0.264583 v 0.529166 h -0.264583 v 0.529167 h -0.264584 v 0.79375 h -0.264583 v 2.645833 h 0.264583 v 0.79375 h 0.264584 v 0.529167 h 0.264583 v 0.529167 h 0.264583 v 0.264583 h 0.264584 v 0.264583 h 0.264583 v 0.264584 h 0.264583 v 0.264583 h 0.529167 v 0.264583 h 0.79375 v 0.264584 h 3.175 v -0.264584 h 0.529167 v -0.264583 h 0.529166 v -0.264583 h 0.264584 v -0.264584 h 0.264583 v -0.529166 h 0.264583 v -1.5875 h -0.264583 v -0.264584 h -0.264583 v -0.264583 h -1.058334 v 0.264583 h -0.264583 v 0.264584 h -0.264583 v 0.264583 h -0.529167 v 0.264583 h -1.852083 v -0.264583 h -0.529167 v -0.264583 h -0.264583 v -0.264584 h -0.264584 v -0.529166 h -0.264583 v -1.5875 h 0.264583 v -0.529167 h 0.264584 v -0.264583 h 0.264583 v -0.264584 h 0.529167 v -0.264583 h 1.852083 v 0.264583 h 0.529167 v 0.264584 h 0.264583 v 0.264583 h 0.264583 v 0.264583 h 1.058334 v -0.264583 h 0.264583 v -0.264583 h 0.264583 v -1.5875 h -0.264583 v -0.529167 h -0.264583 v -0.264583 h -0.264584 v -0.264584 h -0.529166 v -0.264583 h -0.529167 v -0.264583 z"
       id="path129050" />
    <path
       id="path973"
       style="fill:#e6e6e6;fill-opacity:1;stroke:none;stroke-width:0.264583px;stroke-linecap:butt;stroke-linejoin:miter;stroke-opacity:1"
       d="m 86.783333,73.554167 v 0.264583 h -0.529166 v 0.264583 h -0.264584 v 5.55625 h 0.264584 v 0.264584 H 87.3125 v -0.264584 h 0.264583 v -2.116666 h 0.79375 v 0.529166 h 0.264584 V 78.58125 H 88.9 v 0.529167 h 0.264583 v 0.529166 h 0.264584 v 0.264584 h 1.322916 v -0.264584 h 0.264584 V 79.110417 H 90.752083 V 78.58125 H 90.4875 V 78.052083 H 90.222917 V 77.522917 H 89.958333 V 76.99375 h 0.264584 V 76.729167 H 90.4875 V 76.2 h 0.264583 V 74.877083 H 90.4875 V 74.347917 H 90.222917 V 74.083333 H 89.958333 V 73.81875 h -0.529166 v -0.264583 z m 0.79375,1.5875 H 88.9 v 0.264583 h 0.264583 V 76.2 H 88.9 v 0.264583 h -1.322917 z" />
    <path
       id="path973-6"
       style="fill:#e6e6e6;fill-opacity:1;stroke:none;stroke-width:0.264583px;stroke-linecap:butt;stroke-linejoin:miter;stroke-opacity:1"
       d="M 121.17917,73.554167 V 73.81875 H 120.65 v 0.264583 h -0.26458 v 5.55625 H 120.65 v 0.264584 h 1.05834 v -0.264584 h 0.26458 v -2.116666 h 0.79375 v 0.529166 h 0.26458 v 0.529167 h 0.26459 v 0.529167 h 0.26458 v 0.529166 h 0.26458 v 0.264584 h 1.32292 v -0.264584 h 0.26458 v -0.529166 h -0.26458 V 78.58125 h -0.26458 v -0.529167 h -0.26459 v -0.529166 h -0.26458 V 76.99375 h 0.26458 v -0.264583 h 0.26459 V 76.2 h 0.26458 v -1.322917 h -0.26458 v -0.529166 h -0.26459 v -0.264584 h -0.26458 V 73.81875 H 123.825 v -0.264583 z m 0.79375,1.5875 h 1.32292 v 0.264583 h 0.26458 V 76.2 h -0.26458 v 0.264583 h -1.32292 z" />
    <path
       style="fill:#e6e6e6;fill-opacity:1;stroke:none;stroke-width:0.264583px;stroke-linecap:butt;stroke-linejoin:miter;stroke-opacity:1"
       d="m 94.191665,73.818749 v 0.264583 h -0.264583 v 0.529167 h -0.264583 v 0.529167 h -0.264584 v 0.529166 h -0.264583 v 0.529167 h -0.264583 v 0.529167 h -0.264583 v 0.529166 h -0.264584 v 0.529167 h -0.264583 v 0.529167 h -0.264583 v 0.529166 h -0.264584 v 0.79375 h 0.264584 v 0.264584 h 1.322916 v -0.264584 h 0.264583 v -0.264583 h 0.264584 v -0.529167 h 0.264583 v -0.529166 h 0.264583 v -0.529167 h 0.264584 v -0.529167 h 0.264583 v 0.529167 h 0.264583 v 0.529167 h 0.264584 v 0.529166 h 0.264583 v 0.529167 h 0.264583 v 0.264583 h 0.264584 v 0.264584 h 1.322916 v -0.264584 h 0.264584 v -0.79375 h -0.264584 v -0.529166 h -0.264583 v -0.529167 h -0.264583 v -0.529167 h -0.264584 v -0.529166 h -0.264583 v -0.529167 h -0.264583 v -0.529167 h -0.264584 v -0.529166 h -0.264583 v -0.529167 h -0.264583 v -0.529167 h -0.264584 v -0.264583 z"
       id="path975" />
    <path
       style="fill:#e6e6e6;fill-opacity:1;stroke:none;stroke-width:0.264583px;stroke-linecap:butt;stroke-linejoin:miter;stroke-opacity:1"
       d="m 99.483332,73.554166 v 0.264583 h -0.529167 v 0.264583 h -0.264583 v 0.264584 h -0.264583 v 0.529166 h -0.264584 v 0.79375 h -0.264583 v 2.116667 h 0.264583 v 0.79375 h 0.264584 v 0.529167 h 0.264583 v 0.264583 h 0.264583 v 0.264583 h 0.529167 v 0.264584 h 2.381248 v -0.264584 h 0.52917 v -0.264583 h 0.26458 v -0.264583 h 0.26459 v -2.38125 h -0.26459 v -0.264584 h -1.5875 v 0.264584 h -0.26458 v 0.529166 h 0.26458 v 0.264584 h 0.26459 v 0.529166 h -1.32292 v -0.264583 h -0.264585 v -0.529167 h -0.264583 v -1.058333 h 0.264583 v -0.529167 h 0.264585 v -0.264583 h 2.38125 v -0.264583 h 0.26458 v -0.264584 h 0.26459 v -0.79375 h -0.26459 v -0.264583 h -0.26458 v -0.264583 z"
       id="path977" />
    <path
       style="fill:#e6e6e6;fill-opacity:1;stroke:none;stroke-width:0.264583px;stroke-linecap:butt;stroke-linejoin:miter;stroke-opacity:1"
       d="m 105.03958,73.554167 v 0.264583 h -0.52917 v 0.264583 h -0.26458 v 0.264584 h -0.26458 v 0.529166 h -0.26459 v 0.79375 h -0.26458 V 77.7875 h 0.26458 v 0.79375 h 0.26459 v 0.529167 h 0.26458 V 79.375 h 0.26458 v 0.264583 h 0.52917 v 0.264584 h 2.38125 V 79.639583 H 107.95 V 79.375 h 0.26458 v -0.264583 h 0.26459 v -2.38125 h -0.26459 v -0.264584 h -1.5875 v 0.264584 h -0.26458 v 0.529166 h 0.26458 v 0.264584 h 0.26459 v 0.529166 h -1.32292 V 77.7875 h -0.26459 v -0.529167 h -0.26458 V 76.2 h 0.26458 v -0.529167 h 0.26459 V 75.40625 H 107.95 v -0.264583 h 0.26458 v -0.264584 h 0.26459 v -0.79375 h -0.26459 V 73.81875 H 107.95 v -0.264583 z"
       id="path977-0" />
    <path
       style="fill:#e6e6e6;fill-opacity:1;stroke:none;stroke-width:0.264583px;stroke-linecap:butt;stroke-linejoin:miter;stroke-opacity:1"
       d="m 109.80208,73.554166 v 0.264583 h -0.52916 v 0.264583 h -0.26459 v 5.291667 h 0.26459 v 0.264583 h 0.52916 v 0.264584 h 3.70417 v -0.264584 h 0.26458 v -0.79375 h -0.26458 v -0.264583 h -0.26458 v -0.264583 h -2.64584 v -1.058334 h 1.5875 v -0.264583 h 0.26459 v -0.529167 h -0.26459 v -0.264583 h -1.5875 v -1.058333 h 2.64584 v -0.264584 h 0.26458 v -0.264583 h 0.26458 v -0.79375 h -0.26458 v -0.264583 z"
       id="path1579" />
    <path
       style="fill:#e6e6e6;fill-opacity:1;stroke:none;stroke-width:0.264583px;stroke-linecap:butt;stroke-linejoin:miter;stroke-opacity:1"
       d="m 114.82917,73.554166 v 0.264583 h -0.26459 v 0.264583 H 114.3 v 5.55625 h 0.26458 v 0.264584 h 1.32292 v -0.264584 h 0.26458 v -2.645833 h 0.26459 v 0.264583 h 0.26458 v 0.529167 h 0.26458 v 0.264583 h 0.26459 v 0.529167 h 0.26458 v 0.529167 h 0.26458 v 0.264583 h 0.26459 v 0.264583 h 0.26458 v 0.264584 h 1.05833 v -0.264584 h 0.26459 v -0.264583 h 0.26458 v -5.55625 h -0.26458 v -0.264583 h -1.32292 v 0.264583 h -0.26458 v 2.910417 h -0.26459 V 76.199999 H 117.475 v -0.529167 h -0.26458 v -0.264583 h -0.26459 v -0.529167 h -0.26458 v -0.529166 h -0.26458 v -0.264584 h -0.26459 v -0.264583 h -0.26458 v -0.264583 z"
       id="path1694" />
    <path
       id="path2026"
       style="fill:#e6e6e6;fill-opacity:1;stroke:none;stroke-width:0.999999px;stroke-linecap:butt;stroke-linejoin:miter;stroke-opacity:1"
       d="m 483,278 v 1 h -2 v 1 h -2 v 1 h -1 v 1 h -1 v 2 h -1 v 2 h -1 v 8 h 1 v 2 h 1 v 2 h 1 v 1 h 1 v 1 h 2 v 1 h 2 v 1 h 5 v -1 h 2 v -1 h 2 v -1 h 1 v -1 h 1 v -2 h 1 v -2 h 1 v -8 h -1 v -2 h -1 v -2 h -1 v -1 h -1 v -1 h -2 v -1 h -2 v -1 z m 0,7 h 5 v 1 h 1 v 2 h 1 v 4 h -1 v 2 h -1 v 1 h -5 v -1 h -1 v -2 h -1 v -4 h 1 v -2 h 1 z"
       transform="scale(0.26458333)" />
    <path
       style="fill:#e6e6e6;fill-opacity:1;stroke:none;stroke-width:0.264583px;stroke-linecap:butt;stroke-linejoin:miter;stroke-opacity:1"
       d="m 133.61458,73.554166 v 0.264583 h -0.52917 v 0.264583 h -0.52916 v 0.264584 h -0.26459 v 0.529166 h -0.26458 v 0.79375 h -0.26458 v 2.116667 h 0.26458 v 0.79375 h 0.26458 v 0.529167 h 0.26459 v 0.264583 h 0.52916 v 0.264583 h 0.52917 v 0.264584 h 2.11667 v -0.264584 h 0.52916 v -0.264583 h 0.26459 v -0.264583 h 0.26458 V 77.787499 H 136.525 v -0.264583 h -0.79375 v 0.264583 h -0.52917 v 0.264583 h -1.32292 v -0.264583 h -0.26458 V 77.258332 H 133.35 v -1.058333 h 0.26458 v -0.529167 h 0.26458 v -0.264583 h 1.32292 v 0.264583 h 0.52917 v 0.264584 h 0.79375 v -0.264584 h 0.26458 V 74.347916 H 136.525 v -0.264584 h -0.26459 v -0.264583 h -0.52916 v -0.264583 z"
       id="path2198" />
    <path
       style="fill:#e6e6e6;fill-opacity:1;stroke:none;stroke-width:0.264583px;stroke-linecap:butt;stroke-linejoin:miter;stroke-opacity:1"
       d="m 138.37708,71.702082 v 0.264584 h -0.52917 v 0.264583 h -0.26458 v 8.466667 h 0.26458 v 0.264583 h 0.52917 v 0.264583 H 139.7 v -0.264583 h 0.52916 v -0.264583 h 0.26459 v -2.910417 h 0.52916 v 0.529167 h 0.26459 v 0.529166 h 0.26458 v 0.529167 h 0.26458 v 0.529167 h 0.26459 v 0.529166 h 0.26458 v 0.529167 h 0.52917 v 0.264583 h 1.85208 v -0.264583 h 0.26458 v -1.058333 h -0.26458 v -0.529167 h -0.26458 v -0.529167 h -0.26459 v -0.529166 h -0.26458 v -0.529167 h -0.26458 v -0.529167 h -0.26459 v -1.5875 h 0.26459 v -0.529166 h 0.26458 v -0.529167 h 0.26458 v -0.529167 h 0.26459 v -0.529166 h 0.26458 v -0.529167 h 0.26458 v -1.058333 h -0.26458 V 71.702082 H 142.875 v 0.264584 h -0.52917 v 0.529166 h -0.26458 v 0.529167 h -0.26459 v 0.529167 h -0.26458 v 0.529166 h -0.26458 v 0.529167 h -0.26459 v 0.529167 h -0.52916 v -2.910417 h -0.26459 V 71.966666 H 139.7 v -0.264584 z"
       id="path2313" />
  </g>
</svg>
